<?xml version="1.0" standalone="no"?>
<!DOCTYPE svg PUBLIC "-//W3C//DTD SVG 20010904//EN"
 "http://www.w3.org/TR/2001/REC-SVG-20010904/DTD/svg10.dtd">
<svg version="1.0" xmlns="http://www.w3.org/2000/svg"
 width="1059.000000pt" height="1280.000000pt" viewBox="0 0 1059.000000 1280.000000"
 preserveAspectRatio="xMidYMid meet">
<metadata>
Created by potrace 1.15, written by Peter Selinger 2001-2017
</metadata>
<g transform="translate(0.000000,1280.000000) scale(0.100000,-0.100000)"
fill="#ffffff" stroke="none">
<path d="M7504 12789 c-78 -4 -189 -14 -245 -23 -104 -15 -290 -66 -341 -92
-35 -18 -70 -65 -101 -136 -27 -61 -29 -62 -129 -78 -97 -15 -208 -62 -238
-102 -46 -60 -112 -127 -195 -199 -69 -58 -90 -85 -126 -152 -24 -45 -67 -107
-95 -137 -69 -74 -74 -86 -81 -188 -5 -81 -8 -89 -39 -122 -44 -47 -51 -69
-66 -215 -16 -166 -6 -223 62 -358 29 -56 63 -116 76 -134 29 -38 29 -48 5
-115 -28 -75 -39 -148 -51 -343 -12 -184 -22 -241 -76 -445 -49 -181 -60 -199
-165 -270 -124 -82 -207 -107 -384 -116 -219 -10 -302 12 -730 193 -110 47
-243 97 -295 111 l-95 27 -840 0 c-462 0 -943 -3 -1070 -5 l-230 -5 -119 52
c-66 29 -156 74 -200 101 -205 125 -401 220 -581 282 -99 33 -211 70 -250 81
-88 24 -384 54 -535 53 -106 0 -121 -3 -195 -33 -44 -18 -94 -43 -111 -56 -92
-71 -81 -213 27 -330 47 -51 80 -68 197 -102 48 -13 134 -47 192 -74 93 -44
116 -51 197 -58 106 -9 91 -1 298 -159 169 -128 231 -186 347 -320 120 -138
254 -224 485 -308 51 -18 123 -49 161 -68 38 -19 109 -46 157 -60 48 -13 92
-30 97 -38 20 -29 1 -124 -52 -258 -63 -162 -80 -240 -122 -560 -50 -389 -45
-671 17 -908 42 -157 31 -231 -60 -432 -134 -295 -134 -293 -145 -965 -7 -451
-10 -498 -30 -585 -12 -52 -41 -190 -65 -307 -36 -172 -55 -239 -103 -360 -33
-81 -81 -211 -108 -288 -51 -145 -82 -210 -253 -535 l-103 -194 13 -100 c15
-111 29 -137 78 -141 31 -2 34 -6 56 -70 28 -80 51 -106 119 -140 67 -33 113
-33 126 0 10 25 10 25 29 6 26 -26 86 -43 136 -39 38 3 40 5 51 48 l11 45 60
-3 c52 -3 64 -1 83 18 17 17 21 31 18 61 -2 21 -3 39 -2 39 0 0 15 -7 32 -15
27 -14 35 -14 65 -2 18 8 43 27 55 41 40 51 46 118 47 541 1 237 6 443 13 505
30 264 105 542 218 811 44 106 55 143 68 241 16 127 36 176 104 263 22 28 87
120 145 205 58 85 146 205 195 267 97 121 117 157 169 307 62 178 73 191 177
221 108 31 205 2 345 -104 90 -68 121 -104 121 -136 0 -41 -30 -109 -99 -225
-89 -148 -101 -186 -101 -309 0 -129 39 -285 108 -437 28 -61 67 -167 87 -235
l37 -124 -6 -150 c-6 -150 4 -302 25 -405 15 -73 57 -115 123 -125 43 -7 50
-5 76 20 33 31 29 33 107 -37 23 -20 53 -40 68 -44 14 -3 78 -3 142 1 109 7
118 9 144 35 l28 27 23 -24 c33 -36 92 -63 136 -63 53 0 143 55 156 95 6 17
11 31 11 33 1 1 20 -8 42 -20 34 -18 43 -20 56 -9 16 12 57 122 57 150 0 9
-21 68 -48 131 -54 130 -73 149 -177 178 -72 20 -336 191 -384 249 -16 20 -46
75 -66 121 -41 94 -53 181 -40 296 8 80 33 113 146 197 61 45 74 51 105 46 19
-3 45 -14 58 -24 13 -10 76 -58 140 -106 64 -48 135 -111 158 -140 80 -97 152
-163 186 -170 74 -15 99 -163 79 -457 -15 -219 -13 -451 7 -690 80 -969 114
-1367 137 -1570 38 -350 79 -655 93 -705 9 -27 37 -86 63 -130 l48 -80 3 -170
c4 -225 -9 -348 -47 -423 -38 -75 -87 -254 -102 -370 -13 -94 -7 -181 21 -310
11 -50 17 -57 88 -114 89 -71 109 -79 184 -81 45 -1 63 3 88 22 30 22 32 22
45 4 8 -10 15 -21 15 -25 0 -4 37 -25 81 -47 71 -36 90 -41 148 -41 58 0 126
18 211 53 10 4 24 -6 42 -33 34 -49 117 -94 158 -85 34 7 103 65 141 118 26
36 29 48 29 121 0 57 6 97 20 134 22 57 26 136 9 195 -6 21 -47 93 -91 160
-166 250 -209 387 -258 822 -34 306 -79 820 -90 1035 -11 228 -15 1154 -5
1271 8 97 44 277 60 309 23 42 316 333 385 382 116 81 175 108 242 108 33 0
124 7 204 16 187 21 188 21 198 -98 15 -176 98 -981 117 -1133 27 -216 49
-544 49 -746 0 -187 9 -229 71 -347 l38 -73 0 -123 c0 -68 6 -147 12 -176 13
-61 58 -117 126 -157 29 -16 45 -34 49 -51 28 -130 94 -305 141 -374 62 -92
164 -206 193 -218 56 -23 103 -29 159 -19 121 21 181 60 181 115 l0 33 51 -33
c101 -68 289 -110 377 -87 48 13 108 68 118 108 4 15 2 47 -5 72 -9 32 -9 47
-1 49 13 5 39 54 51 96 15 53 0 92 -66 169 -61 72 -134 130 -453 362 -67 49
-133 103 -146 120 -63 82 -130 268 -146 400 -29 259 7 1137 56 1365 67 309
126 644 134 768 10 139 29 213 90 349 35 77 130 216 211 308 160 181 221 296
270 501 34 147 34 154 9 398 -8 70 -10 230 -7 445 4 335 4 336 36 471 44 187
53 331 41 657 -9 244 -3 479 15 555 64 283 117 520 129 583 23 119 74 552 91
775 31 408 32 417 62 478 21 41 50 75 110 127 84 71 103 83 467 280 303 163
464 282 519 383 15 28 49 109 76 182 27 72 61 148 76 170 32 46 54 104 55 142
0 15 -9 51 -20 80 -25 67 -25 110 0 190 11 34 20 74 20 88 0 31 -33 104 -67
149 -25 32 -26 37 -17 103 14 103 -22 199 -89 235 -46 25 -215 29 -368 9 -184
-23 -296 -35 -476 -51 -140 -13 -175 -19 -250 -48 -49 -19 -100 -37 -115 -41
l-28 -6 0 82 c0 104 -20 148 -109 238 -82 82 -123 97 -256 91 -49 -3 -126 -5
-171 -5 l-81 -1 -164 82 c-123 62 -180 85 -229 93 -73 11 -453 11 -666 -1z"/>
</g>
</svg>
